<?xml version="1.0" encoding="UTF-8" standalone="no"?>
<svg version="1" width="850.29999pt" height="644.21246pt" viewBox="0 0 850.29999 644.21246"
   preserveAspectRatio="xMidYMid" id="svg6" sodipodi:docname="DALL·E-Icon-Design-2024-03-14.svg"
   inkscape:version="1.3.2 (091e20e, 2023-11-25)" xmlns:inkscape="http://www.inkscape.org/namespaces/inkscape"
   xmlns:sodipodi="http://sodipodi.sourceforge.net/DTD/sodipodi-0.dtd" xmlns="http://www.w3.org/2000/svg"
   xmlns:svg="http://www.w3.org/2000/svg">
   <defs id="defs6" />
   <sodipodi:namedview id="namedview6" pagecolor="#ffffff" bordercolor="#999999" borderopacity="1"
      inkscape:showpageshadow="2" inkscape:pageopacity="0" inkscape:pagecheckerboard="0" inkscape:deskcolor="#d1d1d1"
      inkscape:document-units="pt" inkscape:zoom="1.3828125" inkscape:cx="1040.9944" inkscape:cy="660.61017"
      inkscape:window-width="3840" inkscape:window-height="2160" inkscape:window-x="1512" inkscape:window-y="0"
      inkscape:window-maximized="0" inkscape:current-layer="g6" />
   <g transform="matrix(0.1,0,0,-0.1,11.635592,1069.1523)" stroke="none" id="g6">
      <path fill="#149eca"
         d="m 5595.5085,10355.466 c -31,-5 -139,-101 -390,-346 -231,-226.0004 -263,-267.0004 -263,-340.9999 0,-50 34,-119 74,-149 17,-13 58,-33 91,-44 69,-23 558,-210 625,-240 54,-24 103,-73 125,-125 13,-32 14,-50 4,-125 -6,-48 -13,-89 -14,-90 -2,-2 -11,8 -20,22 -14,20 -15,29 -6,40 18,21 16,71 -3,100 -28,44 -61,59 -111,53 -37,-6 -45,-4 -50,13 -3,10 -22,33 -41,49 -68,60 -167,34 -217,-56 l -23,-42 -59,53 c -76,67 -83,71 -349,173 -121,46 -302,116 -401,155 -321,126 -447,153 -680,145 -165,-5 -245,-22 -395,-83 -123,-50 -232,-118 -323,-204 -104,-98 -168,-183 -225,-302 -26,-53 -53,-97 -60,-97 -7,-1 -86,29 -175,65 -89,37 -211,87 -272,111 -60,25 -155,66 -210,92 l -101,48 -84,194 c -92,211 -124,258 -193,282.9995 -54,20 -1568.00003,226 -1660.00003,226 -55.99999,0 -95.999993,-25 -116.999993,-73 -26,-59 -17,-86 54.000003,-168.9995 60.99999,-72 325.99999,-396 421.99999,-515 54,-68 39,-58 519.00003,-355 160,-99 355,-221 435,-271 80,-50 192,-120 250,-155 58,-35 115,-74 128,-85 13,-12 69,-98 126,-192 143,-238 310,-518 314,-527 2,-4 -43,15 -100,41 -242,114 -407,154 -643,155 -250,0 -457,-49 -678,-161 -278.00003,-142 -514.00003,-387 -666.00003,-692 -176.999993,-353 -206.999993,-759 -86.99999,-1155 14,-45 56.99999,-145 94.99999,-222 210,-417 570,-708 1011.00003,-816 118,-29 397,-37 525,-14 139,24 259,62 383,121 188,90 310,183 463,353 l 84,92 h 1428 1428 l 142,-144 c 85,-86 171,-162 214,-190 262,-170 513,-249 798,-250 386,-1 729,135 1004,400 246,236 399,513 473,856 32,153 32,421 0,568 -47,210 -150,436 -274,601 -57,77 -67,94 -54,101 23,13 46,62 46,99 0,17 -9,46 -20,64 -41,66 -304,253 -465,330 -84,40 -323,125 -352,125 -7,0 -13,3 -13,8 0,4 39,18 88,31 208,57 281,100 328,197 35,72 43,181 20,271 -30,119 -119,270 -299,506 -216,285 -536,609 -1043,1056.9995 -77,69 -212,188.0004 -298,265.0004 -87,77 -165,144 -173,148 -24,14 -66,23 -90,19 z m -33,-642.0004 c 625,-255.9995 880,-383.9995 1049,-524.9995 275,-231 674,-753 695,-910 8,-54 -12,-105 -51,-131 -75.3726,-39.1954 -227.3815,-47.7117 -274,-42 -37.5164,6 -53,11 -110,13 -100,4 -316,32 -709,95 -102,16 -315,48 -475,69 -159,22 -321,45 -360,50 -74,11 -462,41 -505,40 -72.6962,1.8063 -212.7695,27.8971 -317,47 -93,17 -149,32 -143,38 12,12 939,1 1208,-15 251,-15 291,-8 361,62 55,56 78,122 107,323 32,214 31,338 -4,408 -33,66 -101,139 -160,171 -28,15 -194,84 -369,153 -175,69 -322,129 -326,133 -4,4 20,34.9995 54,68.9995 51,48 67,58 84,52 11,-4 121,-49 245,-100 z M 737.50847,9648.4661 c 132.00003,-19 301.00003,-41 375.00003,-50 193,-23 599,-83 612,-91 12,-8 39,-66 155,-334 135,-313 160,-342 406,-460 299,-143 463,-211 560,-230 73,-15 313,-40 387,-40 8,0 -3,-18 -28,-43 l -42,-43 -122,13 c -152,15 -196,22 -283,48 -57,16 -317,127 -455,194 -69.9387,27.5149 -124.1827,51.9485 -173,84 -68,34 -183.8461,125.423 -202.9176,174.2061 -10.3318,12.2229 -35.3701,49.0522 -51.0824,79.423 -14.0109,31.217 -50.3297,93.5963 -68,135.3709 -0.6297,4.3697 -18.7357,35.3616 -27.0934,49.6291 -14,31 -15.9066,31.3709 -282.9066,114.3709 -66,20 -126,39 -134,42 -38.1,8.912 -91.093,25.688 -115.6703,36.7939 -10.9176,2.2473 -101.3297,37.2061 -125.3297,40.2061 -8,1 -26.2473,9.0412 -52,19 -55.0683,15.785 -56.9218,21.844 -101,36 -23,6 -127.1531,50.1386 -235.00003,86 -106,35.2473 -203.0653,67.9139 -211,74 -10,7.6703 -44,25 -77,55 l -59,56 55,-6 c 30,-4 163,-22 295,-40 z m 3440.00003,-280 c 50,-14 209,-73 355,-130 146,-57 339,-131 430,-165 202,-76 236,-93 243,-121 3,-11 3,-19 1,-16 -3,3 -50,-10 -104,-29 -128,-45 -186,-56 -291,-56 -156,0 -292,50 -519,189 -347,213 -496,243 -835,168 l -92,-29 c -50,-25 -49,-19 3,24 89,74 271,155 414,186 102,21 284,12 395,-21 z m 1580,-701 36,-67 -27,-28 c -26,-27 -92,-61 -146,-74 -24,-6 -28,-3 -47,41 -37,84 -37,88 8,109 22,10 62,33 88,51 27,18 49,33 50,33 0,1 18,-29 38,-65 z m -1860,-145 c 138,-65 176,-224 80,-336 -42,-50 -102,-76 -175,-76 -65,0 -108,19 -165,74 -39,37 -42,38 -68,24 -118,-61 -207,-348 -207,-665 0,-71 2,-130 4,-130 2,0 43,22 92,49 49,28 124,64 167,81 298.3402,120.111 370.0149,-32.9259 61,-177 l -149,-77 c -83,-43 -153,-81 -157,-84 -11,-11 56,-268 97,-372 46,-118 148,-306 221,-409 4,-4 165.456,71.0671 319.456,129.0671 125.9299,75.4098 174.5876,114.6918 258.544,202.9329 74.2712,96.0678 150.7627,182.0847 206.5932,284.8814 -31.0678,56.3728 1.4068,0.1186 -99.5932,160.1186 -88,140 -274,399 -422,589 -66,83 -119,154 -119,156 0,3 24,7 54,9 48,4 66,12 122,53 15,11 11,16 103,-106 35,-46 69,-83 75,-82 6,1 69,22 140,48 278,98 510,145 725,145 153,0 207,-11 305,-63 80,-43 151,-114 183,-184 23,-49 27,-73 28,-155 0,-54 -3,-98 -8,-98 l -40.577,-146.8352 -47.5357,-81.846 c -30.2389,-4.4424 -17.8873,-13.3188 -61.8873,21.6812 -68,53 -134,79 -214,85 -141.4121,-1.5055 -246.6128,-71.883 -320.6443,-151.1096 -83.5518,-103.1161 -110.6268,-187.8848 -146.5169,-262.483 0,0 67.9414,-91.3719 95.5041,-140.9969 51.6229,-92.9437 103.477,-188.3666 129.6571,-291.4105 71.323,-280.7247 127,-678 -3,-843 -80,-102 -180,-144 -338,-144 -155,1 -264,37 -445,146 -138,84 -369,269 -446,357 -18,20 -51,59 -75,85 l -43,48 -98,-25 c -254,-64 -364,-79 -598,-80 -201,-1 -226,1 -291,21 -195,62 -292,192 -282,379 4,73 9,94 48,171 37,76 59,104 154,199 61,60 138,131 171,156 84,64 318,218 390,257 l 61,33 -4,156 c -3,89 1,201 8,261 17,152 71,356 119,456 68,140 178,239 291,261 20,4 44,20 59,37 55,66 170,86 256,46 z m 3265,-915 c 171,-57 498,-231 474,-253 -5,-5 -72,-23 -149,-41 -167,-39 -266,-74 -297,-105 -13,-13 -34,-50 -47,-82 -13,-32 -35,-69 -49,-82 -24,-21 -33,-23 -103,-19 -131,8 -132,9 -213,246 -44,132 -66,211 -62,226 7,30 84,80 190,123 94,39 99,38 256,-13 z m -5305,-86 c 214,-101 662,-326 669,-336 3,-5 -44,-48 -104,-96 l -109,-87 -233,127 c -128,69 -253,139 -278,154 -25,15 -95,55 -157,90 -120,67 -143,93 -125,141 21,54 95,93 157,82 17,-3 98,-37 180,-75 z m 4363,-65 c 16,-32 75,-161 132,-288 56,-126 142,-318 191,-426 49,-107 89,-201 89,-208 0,-27 -32,-79 -56,-90 -43,-19 -80,-13 -113,19 -16,17 -33,40 -37,53 -3,12 -84,198 -179,412 -216,487 -208,466 -196,478 24,24 127,106 133,106 4,1 21,-25 36,-56 z m -977,-255 c 50,-14 114,-69 139,-119 26,-51 27,-137 1,-187 -71,-137 -241,-164 -353,-55 -90,88 -84,236 14,318 64,54 122,66 199,43 z m -1233,-30 c 110,-52 162,-195 111,-308 -27,-60 -54,-88 -114,-116 -119,-56 -255,-10 -316,108 -56,108 -17,243 87,304 82,48 147,51 232,12 z m -2328,-236 c 0,-23 -200,-195 -240,-207 -47,-13 -147,-74 -198,-120 -286,-257 -113.0606,-737.0824 211.1648,-842.3406 131.2983,-44.1668 73.9258,-61.566 390.8352,-82.6594 136.6975,-9.0985 236,-4 236,-9 0,-41 -237,-169 -364,-197 -112,-24 -293,-16 -398,18 -239,78 -430,274 -508.00003,523 -32,100 -39,284 -15,391 66.00003,303 313.00003,555 606.00003,618 75,16 117,22 179,24 53.0877,2.1761 86.5311,-70.765 100,-116 z m 5572,-125 c 166,-136 258,-335 258,-562 0,-228 -87,-426 -256,-584 -89,-83 -214,-150 -338,-181 -107,-27 -284,-27 -387,-1 -214,55 -401,207 -500,406 -107,216 -110,475 -9,675 l 32,63 23,-51 c 45.6708,-97.0504 41.5686,-76.6743 79,-147 3.6558,-96.4951 -11.4524,-214.7789 27.0809,-311.6854 44.2149,-111.1951 123.4551,-214.9191 223.0015,-281.3255 87.0626,-58.0786 197.5667,-80.1466 302.0824,-85.577 59.4118,-3.0869 122.3918,4.4519 175.8352,30.5879 110.4427,54.011 225.2573,134.7065 273,248 61.655,146.3075 73,307 -17,476 l -40,76 30,109 c 38,134 49,164 61,164 6,0 34,-19 63,-43 z m -5397,-150 c 18,-26 50,-52 82,-69 l 53,-26 -50,-42 c 0.9477,0.524 -148,-123 -148,-123 l -248,-211 c -63,-52 -146,-23 -164,58 -15,69 8,105 139,215 154,129 293,241 300,240 3,0 20,-19 36,-42 z"
         id="path1"
         sodipodi:nodetypes="ccscscccsccccccccccccccccccccccscccsssccccccccccccccccccccccccsccsscccccccccccccccccccscccscsscccccccccscccccccccccccsccsscccccsccccscccccccccccccccccsccssccccccccccccscccscsccccccccccasccccccccccccccccccccccccsscccccccccccscccccccsccccsccccccccccccccscccssccccccscsccccccccaaaaacccsccccccccccc" />
      <path fill="#149eca"
         d="m 6542.5085,8680.4661 c -41,-21 -48,-60 -23,-125 53,-139 121,-293 137,-311 25,-28 54,-34 363,-76 97,-14 116,-14 146,-2 43,19 67,52 67,95 0,47 -21,82 -72,118 -51,37 -476,274 -532,298 -46,19 -54,19 -86,3 z"
         id="path2" />
      <path fill="#149eca"
         d="m 4962.5085,7817.4661 c -73,-10 -209,-36 -305,-60 -113,-29 -345,-102 -345,-110 0,-3 24,-35 54,-72 29,-37 104,-143 165,-237 62,-93 114,-171 116,-173 210.0303,173.4963 435.2901,340.4521 653,508 22.0169,37.9661 -37,101 -97,126 -36,16 -177,26 -241,18 z"
         id="path3" sodipodi:nodetypes="ccsccsccc" />
      <path fill="#149eca"
         d="m 3087.5085,7031.4661 c -251,-162 -457,-346 -513,-457 -123,-246 138,-353 643,-266 115,20 268,55 277,64 4,3 -19,45 -51,94 -101,149 -166,301 -220,507 -18,67 -33,106 -42,107 -8,1 -50,-21 -94,-49 z"
         id="path4" />
      <path fill="#149eca" d="m 1530.5085,6188.4661 c -2420.00003,6329.4999 -2420.00003,6329.4999 0,0 z" id="path5"
         sodipodi:nodetypes="ss" />
      <path fill="#333333"
         d="m 1456.5085,4684.4661 c -532,-5 -684.00003,-9 -696.00003,-19 -24,-20 -41,-69 -34,-98 4,-14 18,-37 31,-50 l 24,-24 h 3485.00003 3486 l 31,28 c 44,39 44,95 0,134 l -31,28 h -2659 c -1462,0 -2725,2 -2807,3 -82,2 -455,1 -830,-2 z"
         id="path6" />
      <path style="fill:#149eca;fill-opacity:1;stroke-width:7.5"
         d="m 3779.8102,6220.641 c 0,0 273.5831,-262.0805 439.1252,-348.9991 136.0581,-71.4379 287.5298,-141.2252 441.0429,-134.2305 59.2871,2.7013 125.5435,22.7035 164.9117,67.1152 48.3436,54.537 54.0716,138.1364 57.5274,210.9336 7.9977,168.4711 -32.735,338.6382 -86.2911,498.5701 -40.3951,120.63 -174.4995,339.4115 -174.4995,339.4115 0,0 -117.1077,-192.9667 -197.5105,-270.3786 -102.1683,-98.3678 -228.272,-169.9652 -352.8343,-237.7796 -92.8058,-50.5255 -291.4718,-124.6426 -291.4718,-124.6426 z"
         id="path7" sodipodi:nodetypes="caaaaacaac" />
   </g>
</svg>