<?xml version="1.0" encoding="UTF-8" standalone="no"?>
<svg
   version="1"
   width="275.38474pt"
   height="208.63963pt"
   viewBox="0 0 275.38474 208.63963"
   preserveAspectRatio="xMidYMid"
   id="svg6"
   sodipodi:docname="logo2.svg"
   inkscape:version="1.3.2 (091e20e, 2023-11-25)"
   xmlns:inkscape="http://www.inkscape.org/namespaces/inkscape"
   xmlns:sodipodi="http://sodipodi.sourceforge.net/DTD/sodipodi-0.dtd"
   xmlns="http://www.w3.org/2000/svg"
   xmlns:svg="http://www.w3.org/2000/svg">
  <defs
     id="defs6" />
  <sodipodi:namedview
     id="namedview6"
     pagecolor="#ffffff"
     bordercolor="#999999"
     borderopacity="1"
     inkscape:showpageshadow="2"
     inkscape:pageopacity="0"
     inkscape:pagecheckerboard="0"
     inkscape:deskcolor="#d1d1d1"
     inkscape:document-units="pt"
     inkscape:zoom="1.3828125"
     inkscape:cx="1049.3107"
     inkscape:cy="657.71751"
     inkscape:window-width="3840"
     inkscape:window-height="2132"
     inkscape:window-x="1512"
     inkscape:window-y="28"
     inkscape:window-maximized="0"
     inkscape:current-layer="g6" />
  <g
     transform="matrix(0.1,0,0,-0.1,18.144065,1066.9828)"
     stroke="none"
     id="g6">
    <text
       xml:space="preserve"
       style="font-size:315.379px;fill:#149eca;stroke-width:2.62816"
       x="92.02919"
       y="-10378.09"
       id="text1"
       transform="scale(1,-1)"><tspan
         sodipodi:role="line"
         style="font-style:normal;font-variant:normal;font-weight:normal;font-stretch:normal;font-size:315.379px;font-family:Impact;-inkscape-font-specification:Impact;stroke-width:2.62816"
         x="92.02919"
         y="-10378.09"
         id="tspan2">Fully-Faired</tspan></text>
    <g
       id="g3"
       transform="translate(-103.05083,54.237288)">
      <path
         fill="#149eca"
         d="m 1825.9526,10427.707 c -10.0399,-1.619 -45.0177,-32.71 -126.3085,-112.058 -74.8134,-73.194 -85.1772,-86.473 -85.1772,-110.439 0,-16.193 11.0115,-38.54 23.9662,-48.256 5.5058,-4.21 18.7844,-10.688 29.472,-14.25 22.3469,-7.449 180.7182,-68.013 202.4173,-77.729 17.4889,-7.772 33.3584,-23.642 40.4835,-40.483 4.2103,-10.364 4.5341,-16.193 1.2955,-40.484 -1.9432,-15.545 -4.2103,-28.824 -4.5342,-29.148 -0.6477,-0.647 -3.5625,2.591 -6.4773,7.125 -4.5342,6.478 -4.858,9.393 -1.9432,12.955 5.8296,6.801 5.1818,22.995 -0.9716,32.387 -9.0683,14.25 -19.756,19.108 -35.9494,17.165 -11.9831,-1.943 -14.574,-1.296 -16.1933,4.21 -0.9717,3.239 -7.1251,10.688 -13.2786,15.87 -22.023,19.432 -54.0859,11.011 -70.2793,-18.137 l -7.449,-13.602 -19.1082,17.165 c -24.6139,21.699 -26.881,22.994 -113.0298,56.029 -39.188,14.898 -97.8081,37.568 -129.871,50.199 -103.9615,40.808 -144.7689,49.552 -220.2301,46.961 -53.4381,-1.619 -79.3476,-7.125 -127.9277,-26.881 -39.8358,-16.193 -75.1373,-38.216 -104.6093,-66.069 -33.6823,-31.739 -54.40979,-59.268 -72.87025,-97.808 -8.42056,-17.165 -17.16499,-31.415 -19.43207,-31.415 -2.26707,-0.324 -27.85262,9.392 -56.67685,21.051 -28.82423,11.983 -68.3361,28.177 -88.09203,35.95 -19.43207,8.096 -50.1995,21.375 -68.01223,29.795 l -32.71064,15.546 -27.20489,62.83 c -29.79584,68.336 -40.1596,83.558 -62.50648,91.655 -17.48886,6.477 -507.82465,73.194 -537.620476,73.194 -18.13659,0 -31.0913,-8.097 -37.89253,-23.642 -8.42056,-19.109 -5.50575,-27.853 17.48886,-54.734 19.75593,-23.318 105.580886,-128.252 136.672196,-166.792 17.48886,-22.023 12.63084,-18.784 168.08737,-114.973 51.81884,-32.063 114.97305,-71.575 140.88247,-87.768 25.90942,-16.193 62.18261,-38.864 80.96694,-50.2 18.78433,-11.335 37.24479,-23.966 41.45507,-27.528 4.21028,-3.887 22.34688,-31.739 40.80734,-62.183 46.31309,-77.0804 100.399,-167.7634 101.69447,-170.6782 0.64774,-1.2955 -13.92631,4.858 -32.38677,13.2786 -78.376,36.9209 -131.81418,49.8756 -208.24697,50.1995 -80.96693,0 -148.00756,-15.8695 -219.58233,-52.1427 -90.03525,-45.9892 -166.46803,-125.3368 -215.695936,-224.1165 -57.32459,-114.3253 -67.040619,-245.8156 -28.17649,-374.0672 4.53415,-14.5741 18.46046,-46.9609 30.76743,-71.8987 68.012236,-135.0528 184.604626,-229.2984 327.430316,-264.2761 38.21639,-9.3921 128.57549,-11.9831 170.03056,-4.5341 45.01762,7.7728 83.88175,20.0798 124.04135,39.188 60.88714,29.1481 100.399,59.2678 149.95077,114.3253 l 27.20489,29.7958 h 462.48311 462.4832 l 45.9892,-46.6369 c 27.5288,-27.8527 55.3814,-52.4666 69.3077,-61.5349 84.8534,-55.0575 166.1442,-80.6431 258.4465,-80.9669 125.0129,-0.3239 236.0996,43.7221 325.1632,129.5471 79.6715,76.4327 129.2232,166.1441 153.1894,277.2308 10.3638,49.5517 10.3638,136.3483 0,183.9568 -15.2218,68.0123 -48.5801,141.2064 -88.7397,194.6446 -18.4605,24.9378 -21.6992,30.4435 -17.4889,32.7106 7.449,4.2103 14.8979,20.0798 14.8979,32.0629 0,5.5058 -2.9148,14.8979 -6.4773,20.7275 -13.2786,21.3753 -98.4558,81.9386 -150.5985,106.8764 -27.2049,12.9547 -104.6093,40.4835 -114.0015,40.4835 -2.2671,0 -4.2103,0.9716 -4.2103,2.5909 0,1.2955 12.6309,5.8296 28.5004,10.0399 67.3645,18.4605 91.0068,32.3868 106.2286,63.802 11.3354,23.318 13.9263,58.62 6.4774,87.768 -9.7161,38.54 -38.5403,87.444 -96.8365,163.877 -69.9554,92.303 -173.5931,197.236 -337.794,342.328 -24.9379,22.347 -68.66,60.888 -96.5126,85.825 -28.1765,24.938 -53.4382,46.637 -56.0292,47.933 -7.7728,4.534 -21.3752,7.449 -29.148,6.153 z m -10.6877,-207.923 c 202.4174,-82.91 285.0036,-124.365 339.7373,-170.03 89.0636,-74.814 218.2868,-243.873 225.0881,-294.72 2.5909,-17.489 -3.8864,-34.006 -16.5173,-42.427 -24.4107,-12.694 -73.6415,-15.452 -88.7397,-13.602 -12.1504,1.943 -17.165,3.562 -35.6255,4.21 -32.3868,1.296 -102.3422,10.364 -229.6222,30.768 -33.0345,5.181 -102.0184,15.545 -153.8372,22.346 -51.495,7.126 -103.9616,14.574 -116.5924,16.194 -23.9662,3.562 -149.6269,13.278 -163.5532,12.955 -23.544,0.585 -68.9092,9.034 -102.6661,15.221 -30.1197,5.506 -48.2563,10.364 -46.3131,12.307 3.8864,3.887 304.1118,0.324 391.2323,-4.858 81.2908,-4.858 94.2455,-2.591 116.9162,20.08 17.8127,18.137 25.2617,39.512 34.6539,104.609 10.3637,69.308 10.0399,109.468 -1.2955,132.138 -10.6876,21.376 -32.7106,45.018 -51.8188,55.382 -9.0683,4.858 -62.8304,27.205 -119.5072,49.552 -56.6769,22.346 -104.2855,41.778 -105.5809,43.074 -1.2955,1.295 6.4773,11.335 17.4888,22.347 16.5173,15.545 21.6992,18.784 27.2049,16.841 3.5626,-1.296 39.188,-15.87 79.3476,-32.387 z m -1562.66189,-21.051 c 42.75056,-6.154 97.48421,-13.279 121.45042,-16.194 62.50648,-7.449 193.99678,-26.881 198.20706,-29.472 3.88642,-2.591 12.63085,-21.375 50.1995,-108.171 43.72215,-101.371 51.81884,-110.763 131.49031,-148.98 96.83646,-46.313 149.95077,-68.336 181.36594,-74.489 23.64235,-4.858 101.37066,-12.955 125.33686,-12.955 2.5909,0 -0.9716,-5.829 -9.0683,-13.926 l -13.6025,-13.926 -39.51185,4.21 c -49.2279,4.858 -63.47808,7.125 -91.65457,15.545 -18.46046,5.182 -102.66608,41.132 -147.35983,62.831 -22.65089,8.911 -40.21877,16.824 -56.02912,27.205 -22.02301,11.011 -59.54182,40.62 -65.71846,56.419 -3.34614,3.959 -11.45524,15.887 -16.54395,25.723 -4.53768,10.11 -16.30016,30.313 -22.023,43.842 -0.20394,1.415 -6.06789,11.453 -8.77468,16.073 -4.53415,10.04 -5.15164,10.161 -91.62433,37.042 -21.37527,6.477 -40.80733,12.63 -43.39827,13.602 -12.33937,2.886 -29.50209,8.32 -37.46188,11.916 -3.53586,0.728 -32.81743,12.05 -40.59025,13.022 -2.59094,0.324 -8.50066,2.928 -16.84112,6.153 -17.83485,5.113 -18.43514,7.075 -32.71065,11.66 -7.44896,1.943 -41.18079,16.238 -76.10893,27.852 -34.32998,11.416 -65.7663,21.995 -68.33609,23.966 -3.23868,2.485 -14.25019,8.097 -24.93782,17.813 l -19.1082,18.137 17.81273,-1.944 c 9.71603,-1.295 52.79044,-7.125 95.54098,-12.954 z m 1114.10509,-90.683 c 16.1934,-4.534 67.6883,-23.643 114.973,-42.103 47.2847,-18.46 109.7912,-42.427 139.2632,-53.438 65.4213,-24.614 76.4328,-30.12 78.6998,-39.188 0.9716,-3.563 0.9716,-6.154 0.3239,-5.182 -0.9716,0.972 -16.1934,-3.239 -33.6822,-9.392 -41.4551,-14.574 -60.2395,-18.137 -94.2456,-18.137 -50.5233,0 -94.5693,16.194 -168.0873,61.211 -112.3821,68.984 -160.6384,78.7 -270.4296,54.41 l -29.7958,-9.392 c -16.1934,-8.097 -15.8695,-6.154 0.9716,7.773 28.8242,23.966 87.7681,50.199 134.0812,60.239 33.0345,6.801 91.9785,3.886 127.9278,-6.801 z m 511.711,-227.031 11.6593,-21.7 -8.7445,-9.068 c -8.4205,-8.744 -29.7958,-19.756 -47.2847,-23.966 -7.7728,-1.943 -9.0683,-0.972 -15.2217,13.278 -11.9831,27.205 -11.9831,28.501 2.5909,35.302 7.1251,3.239 20.0798,10.688 28.5004,16.517 8.7444,5.83 15.8695,10.688 16.1934,10.688 0,0.324 5.8296,-9.392 12.3069,-21.051 z m -602.394,-46.961 c 44.6938,-21.052 57.0007,-72.547 25.9094,-108.82 -13.6024,-16.193 -33.0345,-24.614 -56.6768,-24.614 -21.0514,0 -34.9777,6.154 -53.4382,23.966 -12.6308,11.983 -13.6024,12.307 -22.023,7.773 -38.2164,-19.756 -67.0406,-112.7058 -67.0406,-215.3718 0,-22.9947 0.6477,-42.1028 1.2954,-42.1028 0.6478,0 13.9264,7.125 29.7959,15.8695 15.8695,9.0683 40.1596,20.7275 54.0859,26.2333 96.6228,38.9 119.8359,-10.6637 19.7559,-57.3246 l -48.2563,-24.9378 c -26.881,-13.9264 -49.5517,-26.2333 -50.8472,-27.2049 -3.5626,-3.5626 18.1366,-86.7966 31.4152,-120.4788 14.8979,-38.2164 47.9324,-99.1036 71.5747,-132.462 1.2955,-1.2954 53.5859,23.0164 103.4615,41.8007 40.7847,24.4228 56.5433,37.145 83.7341,65.7234 24.054,31.1133 48.8272,58.9714 66.9089,92.2639 -10.0619,18.2574 0.4556,0.038 -32.2551,51.8573 -28.5003,45.3415 -88.7397,129.2232 -136.6722,190.7581 -21.3752,26.881 -38.5402,49.8756 -38.5402,50.5234 0,0.9716 7.7728,2.267 17.4888,2.9148 15.5457,1.2954 21.3753,3.8864 39.5119,17.165 4.858,3.5625 3.5626,5.1818 33.3584,-34.33 11.3354,-14.8979 22.3469,-26.881 24.2901,-26.5572 1.9432,0.3239 22.3468,7.1251 45.3415,15.5457 90.0352,31.739 165.1725,46.9608 234.8041,46.9608 49.5517,0 67.0406,-3.5625 98.7796,-20.4037 25.9095,-13.9263 48.9041,-36.9209 59.2678,-59.5916 7.449,-15.8696 8.7445,-23.6424 9.0683,-50.1995 0,-17.4889 -0.9716,-31.7391 -2.5909,-31.7391 l -13.1416,-47.5552 -15.3953,-26.5072 c -9.7934,-1.4388 -5.7931,-4.3136 -20.0433,7.0218 -22.023,17.165 -43.3983,25.5856 -69.3077,27.5288 -45.7988,-0.4876 -79.8699,-23.2806 -103.8463,-48.9396 -27.0598,-33.3959 -35.8285,-60.8498 -47.4521,-85.0097 0,0 22.004,-29.5925 30.9307,-45.6644 16.719,-30.1015 33.5128,-61.0059 41.9917,-94.3785 23.0993,-90.9176 41.1312,-219.5823 -0.9716,-273.0205 -25.9094,-33.0345 -58.2962,-46.6369 -109.4673,-46.6369 -50.1995,0.3238 -85.5011,11.9831 -144.1211,47.2847 -44.6938,27.2049 -119.5072,87.1204 -144.445,115.6208 -5.8297,6.4773 -16.5173,19.1082 -24.2901,27.5287 l -13.9263,15.5457 -31.7391,-8.0967 c -82.2624,-20.7276 -117.8878,-25.5856 -193.67288,-25.9094 -65.09742,-0.3239 -73.19411,0.3238 -94.24552,6.8012 -63.15421,20.0798 -94.56938,62.1826 -91.3307,122.7459 1.29547,23.6423 2.91481,30.4435 15.54565,55.3813 11.98311,24.614 19.1082,33.6823 49.87563,64.4497 19.75594,19.4321 44.69375,42.4267 55.38139,50.5234 27.20489,20.7275 102.98994,70.6032 126.30843,83.234 l 19.7559,10.6876 -1.2954,50.5234 c -0.9716,28.8242 0.3238,65.0974 2.5909,84.5295 5.5058,49.2279 22.9946,115.2965 38.5403,147.6835 22.023,45.342 57.6484,77.405 94.2455,84.53 6.4773,1.295 14.2502,6.477 19.1082,11.983 17.8127,21.375 55.0575,27.852 82.9101,14.898 z m 1057.4282,-296.3393 c 55.3814,-18.4605 161.2862,-74.8135 153.5133,-81.9385 -1.6193,-1.6194 -23.3185,-7.449 -48.2563,-13.2786 -54.0859,-12.6309 -86.1488,-23.9662 -96.1887,-34.0061 -4.2103,-4.2103 -11.0115,-16.1934 -15.2218,-26.5572 -4.2103,-10.3638 -11.3353,-22.3469 -15.8695,-26.5571 -7.7728,-6.8013 -10.6876,-7.449 -33.3584,-6.1535 -42.4266,2.5909 -42.7505,2.9148 -68.9838,79.6714 -14.2502,42.7506 -21.3753,68.3361 -20.0798,73.1941 2.2671,9.7161 27.2049,25.9095 61.5349,39.8358 30.4435,12.6308 32.0629,12.307 82.9101,-4.2103 z M 615.3349,9509.8661 c 69.3077,-32.7107 214.40045,-105.5809 216.66753,-108.8196 0.9716,-1.6193 -14.25018,-15.5456 -33.68225,-31.0913 l -35.30158,-28.1765 -75.46119,41.1312 c -41.45507,22.3469 -81.93854,45.0176 -90.03523,49.8756 -8.0967,4.8581 -30.76744,17.8128 -50.84724,29.1481 -38.86413,21.6992 -46.31309,30.1197 -40.48347,45.6654 6.80123,17.4889 30.76744,30.1197 50.84724,26.5572 5.50575,-0.9717 31.73904,-11.9832 58.29619,-24.2901 z m 1413.035,-21.0514 c 5.1819,-10.3638 24.2901,-52.1427 42.7505,-93.2739 18.1366,-40.8074 45.9893,-102.99 61.8588,-137.9677 15.8695,-34.6539 28.8242,-65.0974 28.8242,-67.3645 0,-8.7444 -10.3638,-25.5856 -18.1366,-29.1481 -13.9263,-6.1535 -25.9094,-4.2103 -36.597,6.1535 -5.1819,5.5057 -10.6877,12.9547 -11.9831,17.165 -0.9717,3.8864 -27.2049,64.1258 -57.9724,133.4335 -69.9554,157.7236 -67.3645,150.9224 -63.4781,154.8088 7.7729,7.7728 41.1312,34.33 43.0745,34.33 1.2954,0.3238 6.8012,-8.0967 11.6592,-18.1366 z m -316.4188,-82.5863 c 16.1934,-4.5342 36.9209,-22.3469 45.0176,-38.5403 8.4206,-16.5172 8.7444,-44.3699 0.3239,-60.5632 -22.9946,-44.3699 -78.0521,-53.1144 -114.3253,-17.8128 -29.1481,28.5004 -27.2049,76.4328 4.5341,102.99 20.7276,17.4888 39.5119,21.3752 64.4497,13.9263 z m -399.3289,-9.716 c 35.6254,-16.8412 52.4665,-63.1543 35.9493,-99.7513 -8.7444,-19.4321 -17.4889,-28.5004 -36.9209,-37.5687 -38.5403,-18.1366 -82.5863,-3.2386 -102.3422,34.9777 -18.1366,34.9778 -5.5058,78.6999 28.1765,98.4558 26.5571,15.5457 47.6085,16.5173 75.1373,3.8865 z m -753.96415,-76.4328 c 0,-7.449 -64.77355,-63.1542 -77.72826,-67.0407 -15.22179,-4.2102 -47.60856,-23.9662 -64.12582,-38.8641 -92.62617,-83.234 -36.61668,-238.7172 68.38947,-272.8069 42.52329,-14.3042 23.94218,-19.9393 126.57892,-26.7708 44.27191,-2.9467 76.43279,-1.2954 76.43279,-2.9148 0,-13.2785 -76.75666,-54.7336 -117.88786,-63.8019 -36.27319,-7.7728 -94.89325,-5.1819 -128.89937,5.8296 -77.40439,25.2617 -139.26313,88.7398 -164.52483,169.3828 -10.36376,32.3868 -12.63084,91.9785 -4.85801,126.6323 21.37528,98.132 101.37062,179.7466 196.26387,200.1503 24.29008,5.1819 37.89252,7.1251 57.97232,7.7728 17.1934,0.7048 28.02464,-22.9185 32.38678,-37.5686 z m 1804.59105,-40.4835 c 53.7621,-44.046 83.5579,-108.4957 83.5579,-182.0137 0,-73.8418 -28.1765,-137.9676 -82.9101,-189.1387 -28.8242,-26.8811 -69.3077,-48.5802 -109.4673,-58.6201 -34.6539,-8.7444 -91.9785,-8.7444 -125.3368,-0.3239 -69.3077,17.8128 -129.871,67.0407 -161.9339,131.4903 -34.6539,69.9555 -35.6255,153.8372 -2.9148,218.6108 l 10.3637,20.4036 7.449,-16.5172 c 14.7913,-31.4315 13.4627,-24.8324 25.5856,-47.6086 1.184,-31.2516 -3.7091,-69.5599 8.7706,-100.9448 14.3198,-36.0125 39.9831,-69.6054 72.223,-91.1123 28.1968,-18.8098 63.9855,-25.9569 97.8347,-27.7156 19.2416,-0.9998 39.6388,1.4418 56.9474,9.9064 35.7688,17.4924 72.9536,43.6271 88.4159,80.3192 19.968,47.3843 23.6423,99.4274 -5.5058,154.1611 l -12.9547,24.6139 9.716,35.3016 c 12.307,43.3983 15.8696,53.1143 19.756,53.1143 1.9432,0 11.0115,-6.1535 20.4036,-13.9263 z M 615.3349,9231.0159 c 5.82962,-8.4205 16.19339,-16.8411 26.55716,-22.3468 l 17.16499,-8.4206 -16.19339,-13.6024 c 0.30693,0.1697 -47.93242,-39.8358 -47.93242,-39.8358 l -80.31921,-68.3361 c -20.40366,-16.8411 -47.28469,-7.4489 -53.11431,18.7844 -4.85801,22.3468 2.59094,34.0061 45.01762,69.6315 49.87563,41.779 94.89325,78.0522 97.16032,77.7283 0.97161,0 6.47736,-6.1535 11.65924,-13.6025 z"
         id="path1"
         sodipodi:nodetypes="ccscscccsccccccccccccccccccccccscccsssccccccccccccccccccccccccsccsscccccccccccccccccccscccscsscccccccccscccccccccccccsccsscccccsccccscccccccccccccccccsccssccccccccccccscccscsccccccccccasccccccccccccccccccccccccsscccccccccccscccccccsccccsccccccccccccccscccssccccccscsccccccccaaaaacccsccccccccccc"
         style="stroke-width:0.323868" />
      <path
         fill="#149eca"
         d="m 2132.6553,9885.229 c -13.2786,-6.801 -15.5456,-19.432 -7.4489,-40.484 17.1649,-45.017 39.1879,-94.893 44.3698,-100.723 8.0967,-9.068 17.4889,-11.011 117.564,-24.613 31.4152,-4.535 37.5687,-4.535 47.2847,-0.648 13.9263,6.153 21.6992,16.841 21.6992,30.767 0,15.222 -6.8013,26.557 -23.3185,38.217 -16.5173,11.983 -154.1611,88.739 -172.2977,96.512 -14.8979,6.154 -17.4888,6.154 -27.8526,0.972 z"
         id="path2"
         style="stroke-width:0.323868" />
      <path
         fill="#149eca"
         d="m 1620.9443,9605.7309 c -23.6424,-3.2387 -67.6884,-11.6592 -98.7797,-19.432 -36.5971,-9.3922 -111.7344,-33.0346 -111.7344,-35.6255 0,-0.9716 7.7729,-11.3354 17.4889,-23.3185 9.3922,-11.9831 33.6822,-46.3131 53.4382,-76.7566 20.0798,-30.1197 36.9209,-55.3814 37.5686,-56.0291 68.0221,56.1898 140.9764,110.2614 211.4857,164.5248 7.1305,12.296 -11.9831,32.7106 -31.4152,40.8073 -11.6592,5.1819 -57.3246,8.4206 -78.0521,5.8296 z"
         id="path3"
         sodipodi:nodetypes="ccsccsccc"
         style="stroke-width:0.323868" />
      <path
         fill="#149eca"
         d="m 1013.6922,9351.1709 c -81.29077,-52.4666 -148.00753,-112.0583 -166.14412,-148.0076 -39.83573,-79.6715 44.69375,-114.3253 208.24692,-86.1488 37.2448,6.4773 86.7966,17.8127 89.7114,20.7275 1.2955,0.9716 -6.1535,14.5741 -16.5172,30.4436 -32.7107,48.2563 -53.7621,97.4842 -71.2509,164.2009 -5.8297,21.6992 -10.6877,34.33 -13.6025,34.6539 -2.5909,0.3239 -16.1934,-6.8012 -30.4436,-15.8695 z"
         id="path4"
         style="stroke-width:0.323868" />
      <path
         fill="#149eca"
         d="m 509.43015,9078.1504 c -783.75996,2049.9206 -783.75996,2049.9206 0,0 z"
         id="path5"
         sodipodi:nodetypes="ss"
         style="stroke-width:0.323868" />
      <path
         fill="#333333"
         d="m 485.46394,8591.0533 c -172.29765,-1.6194 -221.52556,-2.9148 -225.41197,-6.1535 -7.77282,-6.4774 -13.27858,-22.3469 -11.0115,-31.7391 1.29547,-4.5341 5.82962,-11.9831 10.0399,-16.1933 l 7.77282,-7.7729 h 1128.67911 1129.003 l 10.0399,9.0683 c 14.2502,12.6309 14.2502,30.7675 0,43.3983 l -10.0399,9.0683 h -861.1644 c -473.4946,0 -882.53958,0.6477 -909.09673,0.9716 -26.55716,0.6477 -147.35983,0.3239 -268.81023,-0.6477 z"
         id="path6"
         style="stroke-width:0.323868" />
      <path
         style="fill:#149eca;fill-opacity:1;stroke-width:2.42901"
         d="m 1237.9064,9088.5708 c 0,0 88.6048,-84.8794 142.2185,-113.0296 44.0648,-23.1364 93.1216,-45.7383 142.8396,-43.4729 19.2012,0.8749 40.6595,7.3529 53.4096,21.7364 15.6569,17.6628 17.512,44.738 18.6312,68.3146 2.5902,54.5624 -10.6018,109.674 -27.9469,161.4708 -13.0826,39.0682 -56.5147,109.9244 -56.5147,109.9244 0,0 -37.9274,-62.4956 -63.9673,-87.5669 -33.089,-31.8581 -73.9299,-55.0462 -114.2717,-77.0091 -30.0568,-16.3636 -94.3983,-40.3677 -94.3983,-40.3677 z"
         id="path7"
         sodipodi:nodetypes="caaaaacaac" />
    </g>
  </g>
</svg>
